PathFileType	4	(X/Y/Z)	C:/Users/beibeiliu/ov580/test_trc\sequence.25_training_dense_left.trc
DataRate	CameraRate	NumFrames	NumMarkers	Units	OrigDataRate	OrigDataStartFrame	OrigNumFrames
120	120	13	19	mm	120	188	300
Frame#	Time	ThumbCMC			ThumbMCP			ThumbIP			ThumbTip			IndexMCP			IndexPIP			IndexTip			MiddleMCP			MiddlePIP			MiddleTip			RingMCP			RingPIP			RingTip			PinkyMCP			PinkyPIP			PinkyTip			BackHand1			BackHand2			BackHand3	
		X0	Y0	Z0	X1	Y1	Z1	X2	Y2	Z2	X3	Y3	Z3	X4	Y4	Z4	X5	Y5	Z5	X6	Y6	Z6	X7	Y7	Z7	X8	Y8	Z8	X9	Y9	Z9	X10	Y10	Z10	X11	Y11	Z11	X12	Y12	Z12	X13	Y13	Z13	X14	Y14	Z14	X15	Y15	Z15	X16	Y16	Z16	X17	Y17	Z17	X18	Y18	Z18	
187	1.55833	-204.125	41.0504	20.1398	-175.915	54.4073	14.7865	-149.998	47.5586	8.43311	-134.059	29.4597	7.25208	-152.85	36.2412	-23.4094	-133.02	43.3768	-23.3555	-106.24	49.4618	-13.2274	-144.53	23.67	-20.0836	-119.856	27.2854	-14.2192	-99.5709	34.9632	0.103996	-142.12	12.0318	1.40447	-139.59	23.169	24.7643	-162.708	23.0762	37.5298	-145.506	-6.40293	14.8253	-147.95	9.21761	34.0943	-173.806	13.7942	35.0946	-190.59	-3.82347	-1.4256	-212.682	-8.81877	15.5335	-208.525	14.4467	-0.565753	
188	1.56667	-203.118	41.4504	16.2063	-173.55	56.6271	8.69286	-149.231	48.7396	1.63074	-133.64	29.1029	2.8493	-155.036	36.7448	-29.7013	-133.893	44.9232	-31.5711	-107.877	50.8083	-24.7694	-146.155	19.1797	-24.4324	-120.935	31.5373	-23.8675	-94.3564	43.4442	-11.4098	-138.516	10.2959	-2.67729	-134.729	24.2828	21.2865	-161.473	25.2423	31.748	-140.727	-0.479807	10.4435	-141.943	11.3981	29.0602	-166.842	14.1668	34.3019	-185.735	-10.7583	-3.9145	-211.242	-10.5435	16.1338	-205.668	12.5174	-3.91688	
189	1.575	-201.401	40.1243	11.2968	-174.995	52.5749	2.73088	-150.168	51.4074	-3.72218	-129.777	32.9848	-4.3565	-159.712	36.5021	-36.796	-135.158	44.6387	-41.867	-112.989	53.4685	-40.2898	-146.369	21.2836	-32.6999	-121.602	29.9159	-35.0098	-95.0235	41.6705	-28.9087	-136.986	15.7429	-11.138	-131.803	28.4528	15.189	-158.56	28.8242	26.3357	-136.306	1.15167	4.9672	-139.445	17.2575	19.8774	-165.474	18.7455	26.7653	-187.263	-8.8226	-4.50307	-207.405	-12.9913	14.0824	-204.989	13.0393	-4.06206	
190	1.58333	-202.12	41.5382	7.14237	-173.329	55.1883	-4.09241	-149.561	50.3811	-11.9682	-130.593	36.1597	-12.5136	-161.778	33.2668	-41.3435	-138.786	39.0917	-47.8177	-114.87	51.962	-52.3424	-146.895	20.3655	-39.4061	-123.359	32.9046	-46.2729	-99.0514	40.3797	-44.7761	-136.976	10.4977	-14.5836	-130.936	31.9211	2.93167	-153.672	30.0617	21.7188	-138.934	0.0251139	-1.70387	-137.782	20.829	14.0993	-164.635	22.5272	21.9708	-179.067	-11.1217	-7.01282	-199.783	-13.9674	11.389	-206.86	11.1205	-4.7676	
191	1.59167	-201.516	36.7782	2.99059	-179.242	54.9264	-7.35483	-156.456	51.2091	-16.2478	-135.804	35.7054	-18.2715	-163.706	30.4372	-47.3591	-142.984	38.0328	-58.4763	-121.873	46.0927	-63.0564	-149.998	18.0398	-44.5598	-128.442	26.1003	-52.717	-102.768	40.0859	-57.7377	-138.517	16.8005	-23.0692	-131.311	33.033	-1.77216	-152.789	31.9876	15.45	-139.028	4.63991	-6.59941	-135.585	22.9604	8.25706	-163.024	23.6113	15.5913	-180.155	-12.8068	-8.44672	-198.428	-14.7156	10.412	-204.365	5.18895	-4.84236	
192	1.6	-205.159	38.5936	1.94395	-180.207	53.8223	-14.4561	-157.708	46.6459	-23.2135	-133.745	36.0791	-24.7176	-166.596	26.7827	-54.0896	-148.312	30.9957	-61.9603	-127.83	44.5833	-74.6118	-154.559	14.044	-47.4208	-131.969	22.9878	-58.3143	-110.191	34.6244	-67.7088	-138.562	13.1215	-24.9872	-131.874	34.1902	-7.95233	-156.225	35.31	8.46307	-136.456	1.34116	-7.88143	-134.075	22.8429	4.8401	-159.256	26.1002	16.8846	-181.618	-13.0836	-6.25313	-201.531	-12.6811	13.9958	-205.561	4.94032	-6.70154	
193	1.60833	-207.873	36.523	1.03357	-182.465	49.8829	-15.4144	-158.524	43.819	-27.6465	-137.204	36.2125	-29.988	-169.256	22.852	-57.8997	-152.671	29.3185	-69.2036	-131.145	34.8889	-80.2953	-154.379	13.1619	-53.7473	-136.507	19.0738	-64.0831	-113.912	29.6101	-75.0971	-138.635	11.7867	-28.4593	-134.129	33.674	-13.2709	-151.703	34.9785	5.28856	-141.123	1.39592	-13.5028	-134.699	23.127	0.486827	-161.447	25.3298	14.1618	-178.871	-14.9582	-9.34078	-198.501	-18.6432	13.4791	-206.726	3.92385	-9.0522	
194	1.61667	-204.691	32.7455	-2.81477	-183.516	49.0244	-20.1897	-162.59	43.5844	-28.27	-141.67	29.3007	-31.2452	-172.461	17.6647	-58.1496	-154.194	24.1739	-74.6015	-140.258	29.9962	-85.8726	-159.615	9.06949	-55.5156	-139.082	15.8976	-70.4718	-119.563	22.4257	-80.8636	-143.907	6.89328	-31.5029	-133.535	29.384	-19.0701	-156.607	32.7103	2.40725	-140.627	-0.978775	-15.2907	-139.103	23.0842	-3.63977	-161.613	24.9285	8.7245	-181.945	-17.0345	-7.62871	-198.363	-15.9011	14.4318	-207.564	0.0987115	-6.53895	
195	1.625	-207.169	32.3636	-0.196003	-186.598	46.5012	-19.9001	-164.174	40.6534	-34.5254	-143.747	31.432	-35.4745	-179.635	13.7491	-58.4112	-159.319	17.138	-77.3859	-143.996	23.1392	-90.2299	-162.418	3.74667	-57.8921	-145.91	7.62446	-70.4817	-124.427	19.5554	-88.4688	-145.029	3.41595	-32.734	-134.594	26.8887	-22.5781	-153.535	32.3042	-1.8329	-141.602	-0.154724	-17.7331	-138.503	20.7391	-10.1767	-163.259	23.7373	3.80539	-184.032	-18.5007	-9.13572	-198.415	-16.428	11.8468	-207.163	-2.09325	-10.368	
196	1.63333	-207.694	28.6681	-1.20496	-190.675	44.9241	-21.1874	-169.12	41.7198	-36.0757	-144.712	26.3003	-41.5588	-185.088	10.8587	-60.6474	-168.657	12.3307	-75.7411	-150.635	15.9694	-93.3379	-168.917	-0.278779	-56.9115	-149.028	5.16313	-76.0519	-133.562	15.679	-95.7867	-148.459	3.29574	-37.7791	-142.741	29.7876	-27.9268	-159.406	32.0658	-7.09774	-145.357	-2.03744	-21.1645	-140.945	20.808	-13.3464	-162.125	23.2711	2.82118	-184.156	-20.477	-7.65028	-199.049	-19.9865	15.3314	-212.258	-1.12389	-6.21049	
197	1.64167	-213.723	29.5083	-3.10669	-195.138	43.1993	-22.8317	-173.625	35.8699	-39.2544	-151.423	26.852	-45.2869	-190.787	6.75783	-63.328	-174.285	7.91638	-81.0573	-162.579	11.9093	-96.818	-173.436	-4.865	-58.1961	-162.496	2.70805	-78.2418	-143.171	9.81774	-100.271	-154.894	1.94908	-41.0613	-147.328	26.8106	-33.8851	-160.306	29.7328	-9.61567	-148.664	-3.41591	-25.0201	-144.316	19.319	-17.982	-162.604	25.9093	-2.28513	-187.501	-20.1339	-8.71334	-199.423	-18.0089	19.2122	-211.381	-5.12528	-6.76603	
198	1.65	-217.629	30.0997	0.497234	-198.7	39.2822	-24.0588	-180.952	36.5947	-39.9258	-158.791	23.0599	-48.2094	-198.884	3.48759	-59.1532	-187.795	5.23162	-81.9592	-172.084	5.21206	-98.7405	-179.298	-7.8049	-62.0263	-166.379	-3.49117	-82.1839	-153.995	4.11565	-103.038	-159.567	-2.79419	-41.6048	-149.408	23.9961	-35.0228	-165.085	30.3954	-15.2291	-152.925	-8.06176	-25.956	-146.391	17.1642	-22.5908	-163.841	24.5989	-5.12936	-189.202	-22.7898	-9.07809	-201.009	-17.9216	18.0668	-216.629	-6.31915	-1.66322	
199	1.65833	-216.88	24.6944	-0.841695	-203.062	35.1754	-26.8689	-184.513	30.4615	-45.9108	-166.801	21.0716	-50.4608	-203.675	-1.69869	-60.8502	-194.843	0.548231	-80.5187	-184.576	2.62863	-102.05	-189.95	-9.43763	-62.5222	-178.18	-6.73262	-80.2865	-164.575	-3.47815	-102.029	-167.857	-3.70317	-45.1694	-157.559	20.8752	-41.6236	-169.052	27.0232	-15.9155	-154.231	-6.20626	-30.8205	-152.693	15.0339	-27.6863	-166.533	21.5266	-6.65665	-195.557	-20.7189	-8.86776	-202.766	-19.6431	19.5496	-222.413	-6.33324	-4.77463	
